<svg xmlns="http://www.w3.org/2000/svg" enable-background="new 0 0 2000 2000" viewBox="0 0 2000 2000" id="leaf">
  <linearGradient id="a" x1="760.665" x2="1393.217" y1="1077.159" y2="1340.301" gradientUnits="userSpaceOnUse">
    <stop offset="0" stop-color="#82bc27"></stop>
    <stop offset="1" stop-color="#5b9b38"></stop>
  </linearGradient>
  <path fill="url(#a)" d="M1662.2272949,836.6967773c0,0-103.1872559,76.7805786-141.5341797,206.3314209
		c-37.7810059,127.3720703-198.4881592,537.8565674-710.416748,375.6239014
		c-17.8665161-5.6651611-37.3447876-1.9176025-52.0292969,9.8045654
		c-36.3425903,29.1088867-100.0946045,93.1650391-119.3983765,195.5682373
		c-1.4372559,7.5821533-9.1502686,12.288208-16.6015625,10.3275146
		c-11.9407959-3.1379395-28.0200195-10.5019531-35.7330322-27.5396729
		c-1.8734741-4.1400146-1.5681152-8.9769287,0.8723755-12.8116455
		c12.767395-20.3063965,60.6571655-94.3416748,137.0893555-188.5526123
		c55.4282837-68.2398682,125.8464355-147.0247803,208.7713623-223.6308594
		c123.798584-114.2993164,275.442627-223.6750488,446.8266602-285.6397705
		c-8.0620117,2.0915527-207.2032471,55.9081421-438.5466309,228.2938232
		c-73.2947998,54.6000977-149.7705688,121.0968018-224.460144,201.5817871c0,0-1.0021362-89.5048828,30.2860718-194.6097412
		v-0.0437012c4.574585-15.5568848,9.9343262-31.4615479,16.0355835-47.4536133
		c25.5784302-66.5402832,65.18927-134.8674316,126.6315918-187.6376953
		c44.3598633-38.0852051,100.0499268-68.1090088,170.0765991-83.5786743
		c72.8586426-16.0797119,141.6639404-24.3587036,204.848877-27.4088135
		C1503.3499756,773.7299194,1662.2272949,836.6967773,1662.2272949,836.6967773z"></path>
  <linearGradient id="b" x1="1129.469" x2="1130.123" y1="498.222" y2="498.222" gradientUnits="userSpaceOnUse">
    <stop offset="0" stop-color="#82bc27"></stop>
    <stop offset="1" stop-color="#5b9b38"></stop>
  </linearGradient>
  <path fill="url(#b)" d="M1129.4691162,498.5049133c0.0871582-0.0871277,0.2178955-0.1742859,0.3050537-0.2614441
		c0.0871582-0.1307373,0.2614746-0.217865,0.3486328-0.3050232"></path>
  <linearGradient id="c" x1="842.435" x2="842.479" y1="836.849" y2="836.849" gradientUnits="userSpaceOnUse">
    <stop offset="0" stop-color="#82bc27"></stop>
    <stop offset="1" stop-color="#5b9b38"></stop>
  </linearGradient>
  <path fill="url(#c)" d="M842.4788208,836.8275757c-0.0435791,0-0.0435791,0.0435791-0.0435791,0.0435791"></path>
  <linearGradient id="d" x1="926.475" x2="1184.556" y1="913.204" y2="275.592" gradientUnits="userSpaceOnUse">
    <stop offset="0" stop-color="#82bc27"></stop>
    <stop offset="1" stop-color="#5b9b38"></stop>
  </linearGradient>
  <path fill="url(#d)" d="M1284.9910889,569.3156128c3.7480469,43.4449463,5.4033203,129.0284424-20.0452881,216.0056152
		c-63.1849365,3.0501099-131.9902344,11.3291016-204.848877,27.4088135
		c-70.0266724,15.4696655-125.7167358,45.4934692-170.0765991,83.5786743
		c-6.9725342-11.0247803-14.7728271-21.8751221-23.4007568-32.5073853
		c61.4859619-128.6795044,146.8078003-262.8496704,262.8496704-365.2964478
		c-0.0872803,0.0872498-0.1744385,0.1308594-0.2617188,0.174469
		c-14.3365479,10.6758728-159.3134155,122.2303772-286.7280273,338.1482849
		c-1.612793-1.6559448-3.2681885-3.3554688-4.9682617-5.0113525
		c-39.87146-39.0874023-80.0918579-72.5969238-119.3972778-101.3573608
		c17.3856201-72.1618652,57.1708984-145.7173462,136.7839966-199.2285767
		c246.4215088-165.8497925,474.6275635-166.2849121,477.1115723-166.2849121
		C1332.0095215,364.9454346,1275.1429443,456.4982605,1284.9910889,569.3156128z"></path>
  <path fill="#8fc740" d="M1264.9464111,785.3209839c-0.2178955,0.871521-0.4793701,1.6994629-0.7408447,2.5709839"></path>
  <linearGradient id="e" x1="717.678" x2="718.113" y1="731.396" y2="731.396" gradientUnits="userSpaceOnUse">
    <stop offset="0" stop-color="#82bc27"></stop>
    <stop offset="1" stop-color="#5b9b38"></stop>
  </linearGradient>
  <path fill="url(#e)" d="M718.1134033,730.4590454c-0.1307373,0.6100464-0.3049927,1.2636719-0.43573,1.8737183"></path>
  <linearGradient id="f" x1="816.225" x2="816.225" y1="980.327" y2="980.327" gradientUnits="userSpaceOnUse">
    <stop offset="0" stop-color="#82bc27"></stop>
    <stop offset="1" stop-color="#5b9b38"></stop>
  </linearGradient>
  <line x1="816.225" x2="816.225" y1="980.281" y2="980.374" fill="url(#f)"></line>
  <linearGradient id="g" x1="1129.469" x2="1130.297" y1="498.178" y2="498.178" gradientUnits="userSpaceOnUse">
    <stop offset="0" stop-color="#82bc27"></stop>
    <stop offset="1" stop-color="#5b9b38"></stop>
  </linearGradient>
  <path fill="url(#g)" d="M1129.4691162,498.5049133c0.0871582-0.0871277,0.2178955-0.1742859,0.3050537-0.2614441
		c0.0871582-0.1307373,0.2614746-0.217865,0.3486328-0.3050232c0.0871582,0,0.0871582,0,0.1743164-0.0871582"></path>
  <linearGradient id="h" x1="763.389" x2="763.432" y1="1083.99" y2="1083.99" gradientUnits="userSpaceOnUse">
    <stop offset="0" stop-color="#82bc27"></stop>
    <stop offset="1" stop-color="#5b9b38"></stop>
  </linearGradient>
  <path fill="url(#h)" d="M763.432251,1084.0332031c0-0.0435791-0.0435791-0.0435791-0.0435791-0.0871582"></path>
  <linearGradient id="i" x1="933.247" x2="933.247" y1="1181.861" y2="1181.861" gradientUnits="userSpaceOnUse">
    <stop offset="0" stop-color="#82bc27"></stop>
    <stop offset="1" stop-color="#5b9b38"></stop>
  </linearGradient>
  <line x1="933.247" x2="933.247" y1="1181.905" y2="1181.817" fill="url(#i)"></line>
  <linearGradient id="j" x1="271.683" x2="1000.384" y1="948.866" y2="1045.014" gradientUnits="userSpaceOnUse">
    <stop offset="0" stop-color="#82bc27"></stop>
    <stop offset="1" stop-color="#5b9b38"></stop>
  </linearGradient>
  <path fill="url(#j)" d="M941.5272217,1124.4716797c-1.6564331,19.6958008-4.5756226,38.9134521-8.2800293,57.3459473
		c-82.9249268,76.6060791-153.3430786,155.3909912-208.7713623,223.6308594
		C276.8215027,1281.4312744,348.0237122,901.5375977,379.3544617,788.414978
		c32.1584473-116.347229-9.6726379-223.4569702-9.6726379-223.4569702s163.2774048,29.8498535,347.9959106,165.1530151
		c0.1308594,0.0861816,0.3053589,0.217041,0.4362183,0.3479004c39.3054199,28.760437,79.5258179,62.2699585,119.3972778,101.3573608
		c1.7000732,1.6558838,3.3554688,3.3554077,4.9682617,5.0113525c8.7151489,8.845459,16.7324219,17.8223267,24.1400757,26.9736938
		c8.6279297,10.6322632,16.4282227,21.482605,23.4007568,32.5073853
		c-61.4423218,52.7702637-101.0531616,121.0974121-126.6315918,187.6376953
		C672.010376,868.9865723,560.2388306,748.7169189,555.4886475,743.6188965
		c91.2911377,116.3908081,151.7738647,254.5695801,191.864502,387.7811279v0.0437012
		c-31.288208,105.1048584-30.2860718,194.6097412-30.2860718,194.6097412
		C791.7566528,1245.5684814,868.2324219,1179.0717773,941.5272217,1124.4716797z"></path>
  <linearGradient id="k" x1="890.02" x2="890.02" y1="896.33" y2="896.33" gradientUnits="userSpaceOnUse">
    <stop offset="0" stop-color="#82bc27"></stop>
    <stop offset="1" stop-color="#5b9b38"></stop>
  </linearGradient>
  <line x1="890.02" x2="890.02" y1="896.352" y2="896.309" fill="url(#k)"></line>
  <linearGradient id="l" x1="555.314" x2="555.488" y1="743.532" y2="743.532" gradientUnits="userSpaceOnUse">
    <stop offset="0" stop-color="#82bc27"></stop>
    <stop offset="1" stop-color="#5b9b38"></stop>
  </linearGradient>
  <path fill="url(#l)" d="M555.4884644,743.6188965c-0.0871582-0.0871582-0.0871582-0.0871582-0.1743164-0.1742554"></path>
</svg>
